{
  "accessors": [
    {
      "bufferView": 3,
      "componentType": 5126,
      "count": 51903,
      "max": [
        0.9895834922790527,
        0.9895835518836975,
        0.8572368621826172
      ],
      "min": [
        -0.9895833730697632,
        -0.989583432674408,
        -0.9895836114883423
      ],
      "type": "VEC3"
    },
    {
      "bufferView": 3,
      "byteOffset": 622836,
      "componentType": 5126,
      "count": 51903,
      "max": [
        1.0,
        1.0,
        1.0
      ],
      "min": [
        -1.0,
        -1.0,
        -1.0
      ],
      "type": "VEC3"
    },
    {
      "bufferView": 2,
      "componentType": 5126,
      "count": 51903,
      "max": [
        0.9974672794342041,
        0.9974392056465149
      ],
      "min": [
        0.002532741753384471,
        0.002532741753384471
      ],
      "type": "VEC2"
    },
    {
      "bufferView": 1,
      "componentType": 5125,
      "count": 141447,
      "type": "SCALAR"
    },
    {
      "bufferView": 5,
      "componentType": 5126,
      "count": 4,
      "max": [
        3.107048273086548,
        0.0,
        2.22233484237222e-06,
        0.0,
        1.0707243959870308e-15,
        1.072432518005371,
        2.916093587875366,
        0.0,
        7.966289103933377e-07,
        3.107048273086548,
        1.0724303722381592,
        0.0,
        2.3378067481871767e-08,
        1.104438066482544,
        0.04082586616277695,
        1.0
      ],
      "min": [
        1.0,
        -8.539354526227935e-14,
        -7.470662246984662e-16,
        0.0,
        -2.074645408356446e-06,
        -1.1137678623199463,
        -3.107048273086548,
        0.0,
        -7.470524604130733e-16,
        -2.9160993099212646,
        -1.1137681007385254,
        0.0,
        -2.3356539782565757e-17,
        -0.09932239353656769,
        -0.03268491104245186,
        1.0
      ],
      "type": "MAT4"
    },
    {
      "bufferView": 0,
      "componentType": 5123,
      "count": 51903,
      "type": "VEC4"
    },
    {
      "bufferView": 4,
      "componentType": 5126,
      "count": 51903,
      "max": [
        1.0,
        0.49962785840034485,
        0.32879576086997986,
        0.0
      ],
      "min": [
        0.33670300245285034,
        0.0,
        0.0,
        0.0
      ],
      "type": "VEC4"
    },
    {
      "bufferView": 6,
      "componentType": 5126,
      "count": 471,
      "max": [
        10.416666984558105
      ],
      "min": [
        0.0
      ],
      "type": "SCALAR"
    },
    {
      "bufferView": 7,
      "componentType": 5126,
      "count": 471,
      "max": [
        0.9845159649848938,
        -1.4856169095408297e-16,
        -1.0512406132620424e-16,
        -0.17529499530792236
      ],
      "min": [
        0.9057719707489014,
        -1.8190777666581888e-16,
        -1.4856288209416505e-16,
        -0.4237653613090515
      ],
      "type": "VEC4"
    },
    {
      "bufferView": 6,
      "byteOffset": 1884,
      "componentType": 5126,
      "count": 471,
      "max": [
        10.416666984558105
      ],
      "min": [
        0.0
      ],
      "type": "SCALAR"
    },
    {
      "bufferView": 7,
      "byteOffset": 7536,
      "componentType": 5126,
      "count": 471,
      "max": [
        0.9832454323768616,
        6.519076123367995e-08,
        3.576278118089249e-07,
        0.4402341842651367
      ],
      "min": [
        0.8978829979896545,
        -3.187111374813867e-08,
        3.5163597544851655e-07,
        0.1822865903377533
      ],
      "type": "VEC4"
    }
  ],
  "animations": [
    {
      "channels": [
        {
          "sampler": 0,
          "target": {
            "node": 49,
            "path": "rotation"
          }
        },
        {
          "sampler": 1,
          "target": {
            "node": 50,
            "path": "rotation"
          }
        }
      ],
      "name": "Armature|ArmatureAction",
      "samplers": [
        {
          "input": 7,
          "interpolation": "LINEAR",
          "output": 8
        },
        {
          "input": 9,
          "interpolation": "LINEAR",
          "output": 10
        }
      ]
    }
  ],
  "asset": {
    "extras": {
      "author": "Stridity (https://sketchfab.com/Stridity)",
      "license": "CC-BY-4.0 (http://creativecommons.org/licenses/by/4.0/)",
      "source": "https://sketchfab.com/3d-models/pac-man-pixels-11feb34b636d4666b242d93bff319a64",
      "title": "Pac man [Pixels]"
    },
    "generator": "Sketchfab-15.38.0",
    "version": "2.0"
  },
  "bufferViews": [
    {
      "buffer": 0,
      "byteLength": 415224,
      "byteStride": 8,
      "name": "shortBufferViews",
      "target": 34962
    },
    {
      "buffer": 0,
      "byteLength": 565788,
      "byteOffset": 415224,
      "name": "floatBufferViews",
      "target": 34963
    },
    {
      "buffer": 0,
      "byteLength": 415224,
      "byteOffset": 981012,
      "byteStride": 8,
      "name": "floatBufferViews",
      "target": 34962
    },
    {
      "buffer": 0,
      "byteLength": 1245672,
      "byteOffset": 1396236,
      "byteStride": 12,
      "name": "floatBufferViews",
      "target": 34962
    },
    {
      "buffer": 0,
      "byteLength": 830448,
      "byteOffset": 2641908,
      "byteStride": 16,
      "name": "floatBufferViews",
      "target": 34962
    },
    {
      "buffer": 0,
      "byteLength": 256,
      "byteOffset": 3472356,
      "name": "floatBufferViews"
    },
    {
      "buffer": 0,
      "byteLength": 3768,
      "byteOffset": 3472612,
      "name": "floatBufferViews"
    },
    {
      "buffer": 0,
      "byteLength": 15072,
      "byteOffset": 3476380,
      "byteStride": 16,
      "name": "floatBufferViews"
    }
  ],
  "buffers": [
    {
      "byteLength": 3491452,
      "uri": "scene.bin"
    }
  ],
  "extensionsUsed": [
    "KHR_materials_unlit"
  ],
  "images": [
    {
      "uri": "textures/Material.001_baseColor.png"
    },
    {
      "uri": "textures/Material.001_emissive.png"
    }
  ],
  "materials": [
    {
      "alphaMode": "BLEND",
      "doubleSided": true,
      "emissiveFactor": [
        0.8380977922980336,
        0.8380977922980336,
        0.8380977922980336
      ],
      "emissiveTexture": {
        "index": 1
      },
      "extensions": {
        "KHR_materials_unlit": {}
      },
      "name": "Material.001",
      "pbrMetallicRoughness": {
        "baseColorTexture": {
          "index": 0
        },
        "metallicFactor": 0.0
      }
    }
  ],
  "meshes": [
    {
      "name": "Sphere_Material.001_0",
      "primitives": [
        {
          "attributes": {
            "JOINTS_0": 5,
            "NORMAL": 1,
            "POSITION": 0,
            "TEXCOORD_0": 2,
            "WEIGHTS_0": 6
          },
          "indices": 3,
          "material": 0,
          "mode": 4
        }
      ]
    }
  ],
  "nodes": [
    {
      "children": [
        1
      ],
      "matrix": [
        2.1205599308013916,
        0.0,
        0.0,
        0.0,
        0.0,
        4.708588920546467e-16,
        -2.1205599308013916,
        0.0,
        0.0,
        2.1205599308013916,
        4.708588920546467e-16,
        0.0,
        0.0,
        0.0,
        0.0,
        1.0
      ],
      "name": "Sketchfab_model"
    },
    {
      "children": [
        2
      ],
      "matrix": [
        0.009999999776482582,
        0.0,
        0.0,
        0.0,
        0.0,
        0.0,
        0.009999999776482582,
        0.0,
        0.0,
        -0.009999999776482582,
        0.0,
        0.0,
        0.0,
        0.0,
        0.0,
        1.0
      ],
      "name": "cd7f4e545ffe4102b082ac61f0108522.fbx"
    },
    {
      "children": [
        3
      ],
      "name": "Object_2"
    },
    {
      "children": [
        4,
        6,
        7,
        10,
        13,
        16,
        19,
        22,
        25,
        28,
        31,
        34,
        37,
        40,
        43
      ],
      "name": "RootNode"
    },
    {
      "children": [
        5
      ],
      "name": "Camera",
      "rotation": [
        0.0047854213044047356,
        0.401467889547348,
        -0.148321270942688,
        0.9037706851959229
      ],
      "scale": [
        100.0,
        100.0,
        100.0
      ],
      "translation": [
        -606.41015625,
        253.81092834472656,
        692.5791015625
      ]
    },
    {
      "name": "Object_5"
    },
    {
      "name": "Sphere",
      "rotation": [
        -0.7071068286895752,
        0.0,
        0.0,
        0.7071067094802856
      ],
      "scale": [
        100.0,
        100.0,
        100.0
      ],
      "translation": [
        0.0,
        -5.4503956903317885e-09,
        -5.9533026615099516e-06
      ]
    },
    {
      "children": [
        8
      ],
      "name": "Point",
      "rotation": [
        -3.774895063202166e-08,
        -0.0,
        0.0,
        1.0
      ],
      "scale": [
        100.0,
        100.0,
        100.0
      ],
      "translation": [
        142.13999938964844,
        0.0,
        0.0
      ]
    },
    {
      "children": [
        9
      ],
      "matrix": [
        1.0,
        0.0,
        0.0,
        0.0,
        0.0,
        2.220446049250313e-16,
        1.0,
        0.0,
        0.0,
        -1.0,
        2.220446049250313e-16,
        0.0,
        0.0,
        0.0,
        0.0,
        1.0
      ],
      "name": "Object_8"
    },
    {
      "name": "Object_9"
    },
    {
      "children": [
        11
      ],
      "name": "Point.001",
      "rotation": [
        -3.774895063202166e-08,
        -0.0,
        0.0,
        1.0
      ],
      "scale": [
        100.0,
        100.0,
        100.0
      ],
      "translation": [
        -142.13995361328125,
        0.0,
        0.0
      ]
    },
    {
      "children": [
        12
      ],
      "matrix": [
        1.0,
        0.0,
        0.0,
        0.0,
        0.0,
        2.220446049250313e-16,
        1.0,
        0.0,
        0.0,
        -1.0,
        2.220446049250313e-16,
        0.0,
        0.0,
        0.0,
        0.0,
        1.0
      ],
      "name": "Object_11"
    },
    {
      "name": "Object_12"
    },
    {
      "children": [
        14
      ],
      "name": "Point.002",
      "rotation": [
        -3.774895063202166e-08,
        -0.0,
        0.0,
        1.0
      ],
      "scale": [
        100.0,
        100.0,
        100.0
      ],
      "translation": [
        142.13999938964844,
        0.0,
        0.0
      ]
    },
    {
      "children": [
        15
      ],
      "matrix": [
        1.0,
        0.0,
        0.0,
        0.0,
        0.0,
        2.220446049250313e-16,
        1.0,
        0.0,
        0.0,
        -1.0,
        2.220446049250313e-16,
        0.0,
        0.0,
        0.0,
        0.0,
        1.0
      ],
      "name": "Object_14"
    },
    {
      "name": "Object_15"
    },
    {
      "children": [
        17
      ],
      "name": "Point.003",
      "rotation": [
        -3.774895063202166e-08,
        -0.0,
        0.0,
        1.0
      ],
      "scale": [
        100.0,
        100.0,
        100.0
      ],
      "translation": [
        -142.13995361328125,
        0.0,
        0.0
      ]
    },
    {
      "children": [
        18
      ],
      "matrix": [
        1.0,
        0.0,
        0.0,
        0.0,
        0.0,
        2.220446049250313e-16,
        1.0,
        0.0,
        0.0,
        -1.0,
        2.220446049250313e-16,
        0.0,
        0.0,
        0.0,
        0.0,
        1.0
      ],
      "name": "Object_17"
    },
    {
      "name": "Object_18"
    },
    {
      "children": [
        20
      ],
      "name": "Point.004",
      "rotation": [
        -3.774895063202166e-08,
        -0.0,
        0.0,
        1.0
      ],
      "scale": [
        100.0,
        100.0,
        100.0
      ],
      "translation": [
        -0.5097508430480957,
        0.0,
        134.41116333007813
      ]
    },
    {
      "children": [
        21
      ],
      "matrix": [
        1.0,
        0.0,
        0.0,
        0.0,
        0.0,
        2.220446049250313e-16,
        1.0,
        0.0,
        0.0,
        -1.0,
        2.220446049250313e-16,
        0.0,
        0.0,
        0.0,
        0.0,
        1.0
      ],
      "name": "Object_20"
    },
    {
      "name": "Object_21"
    },
    {
      "children": [
        23
      ],
      "name": "Point.005",
      "rotation": [
        -3.774895063202166e-08,
        -0.0,
        0.0,
        1.0
      ],
      "scale": [
        100.0,
        100.0,
        100.0
      ],
      "translation": [
        -0.5097508430480957,
        0.0,
        134.41116333007813
      ]
    },
    {
      "children": [
        24
      ],
      "matrix": [
        1.0,
        0.0,
        0.0,
        0.0,
        0.0,
        2.220446049250313e-16,
        1.0,
        0.0,
        0.0,
        -1.0,
        2.220446049250313e-16,
        0.0,
        0.0,
        0.0,
        0.0,
        1.0
      ],
      "name": "Object_23"
    },
    {
      "name": "Object_24"
    },
    {
      "children": [
        26
      ],
      "name": "Point.006",
      "rotation": [
        -3.774895063202166e-08,
        -0.0,
        0.0,
        1.0
      ],
      "scale": [
        100.0,
        100.0,
        100.0
      ],
      "translation": [
        0.1348733901977539,
        0.0,
        -138.4191131591797
      ]
    },
    {
      "children": [
        27
      ],
      "matrix": [
        1.0,
        0.0,
        0.0,
        0.0,
        0.0,
        2.220446049250313e-16,
        1.0,
        0.0,
        0.0,
        -1.0,
        2.220446049250313e-16,
        0.0,
        0.0,
        0.0,
        0.0,
        1.0
      ],
      "name": "Object_26"
    },
    {
      "name": "Object_27"
    },
    {
      "children": [
        29
      ],
      "name": "Point.007",
      "rotation": [
        -3.774895063202166e-08,
        -0.0,
        0.0,
        1.0
      ],
      "scale": [
        100.0,
        100.0,
        100.0
      ],
      "translation": [
        0.1348733901977539,
        0.0,
        -138.4191131591797
      ]
    },
    {
      "children": [
        30
      ],
      "matrix": [
        1.0,
        0.0,
        0.0,
        0.0,
        0.0,
        2.220446049250313e-16,
        1.0,
        0.0,
        0.0,
        -1.0,
        2.220446049250313e-16,
        0.0,
        0.0,
        0.0,
        0.0,
        1.0
      ],
      "name": "Object_29"
    },
    {
      "name": "Object_30"
    },
    {
      "children": [
        32
      ],
      "name": "Point.008",
      "rotation": [
        -3.774895063202166e-08,
        -0.0,
        0.0,
        1.0
      ],
      "scale": [
        100.0,
        100.0,
        100.0
      ],
      "translation": [
        0.5346536636352539,
        189.01882934570313,
        0.0
      ]
    },
    {
      "children": [
        33
      ],
      "matrix": [
        1.0,
        0.0,
        0.0,
        0.0,
        0.0,
        2.220446049250313e-16,
        1.0,
        0.0,
        0.0,
        -1.0,
        2.220446049250313e-16,
        0.0,
        0.0,
        0.0,
        0.0,
        1.0
      ],
      "name": "Object_32"
    },
    {
      "name": "Object_33"
    },
    {
      "children": [
        35
      ],
      "name": "Point.009",
      "rotation": [
        -3.774895063202166e-08,
        -0.0,
        0.0,
        1.0
      ],
      "scale": [
        100.0,
        100.0,
        100.0
      ],
      "translation": [
        0.5346536636352539,
        189.01882934570313,
        0.0
      ]
    },
    {
      "children": [
        36
      ],
      "matrix": [
        1.0,
        0.0,
        0.0,
        0.0,
        0.0,
        2.220446049250313e-16,
        1.0,
        0.0,
        0.0,
        -1.0,
        2.220446049250313e-16,
        0.0,
        0.0,
        0.0,
        0.0,
        1.0
      ],
      "name": "Object_35"
    },
    {
      "name": "Object_36"
    },
    {
      "children": [
        38
      ],
      "name": "Point.010",
      "rotation": [
        -3.774895063202166e-08,
        -0.0,
        0.0,
        1.0
      ],
      "scale": [
        100.0,
        100.0,
        100.0
      ],
      "translation": [
        -0.0439763069152832,
        -160.62460327148438,
        0.0
      ]
    },
    {
      "children": [
        39
      ],
      "matrix": [
        1.0,
        0.0,
        0.0,
        0.0,
        0.0,
        2.220446049250313e-16,
        1.0,
        0.0,
        0.0,
        -1.0,
        2.220446049250313e-16,
        0.0,
        0.0,
        0.0,
        0.0,
        1.0
      ],
      "name": "Object_38"
    },
    {
      "name": "Object_39"
    },
    {
      "children": [
        41
      ],
      "name": "Point.011",
      "rotation": [
        -3.774895063202166e-08,
        -0.0,
        0.0,
        1.0
      ],
      "scale": [
        100.0,
        100.0,
        100.0
      ],
      "translation": [
        -0.0439763069152832,
        -160.62460327148438,
        0.0
      ]
    },
    {
      "children": [
        42
      ],
      "matrix": [
        1.0,
        0.0,
        0.0,
        0.0,
        0.0,
        2.220446049250313e-16,
        1.0,
        0.0,
        0.0,
        -1.0,
        2.220446049250313e-16,
        0.0,
        0.0,
        0.0,
        0.0,
        1.0
      ],
      "name": "Object_41"
    },
    {
      "name": "Object_42"
    },
    {
      "children": [
        44
      ],
      "name": "Armature",
      "rotation": [
        2.1855694143368964e-08,
        0.0,
        0.0,
        1.0
      ],
      "scale": [
        32.18488693237305,
        32.18488693237305,
        32.18488693237305
      ],
      "translation": [
        0.0,
        -0.16384609043598175,
        -35.54621505737305
      ]
    },
    {
      "children": [
        45,
        47,
        46
      ],
      "name": "Object_44"
    },
    {
      "children": [
        48
      ],
      "name": "_rootJoint"
    },
    {
      "matrix": [
        99.99999736271548,
        0.0,
        0.0,
        0.0,
        0.0,
        -1.629206834716149e-05,
        -99.99999736271639,
        0.0,
        0.0,
        99.99999736271639,
        -1.629206834716149e-05,
        0.0,
        0.0,
        6.152690551486373e-09,
        -8.430136666959243e-06,
        1.0
      ],
      "name": "Object_46"
    },
    {
      "mesh": 0,
      "name": "Object_47",
      "skin": 0
    },
    {
      "children": [
        49,
        50
      ],
      "name": "Bone_00",
      "rotation": [
        0.7071068286895752,
        0.0,
        0.0,
        0.7071067094802856
      ]
    },
    {
      "name": "Bone.001_01",
      "rotation": [
        0.9843624830245972,
        -1.486914193439109e-16,
        -1.4843306106010853e-16,
        -0.17615492641925812
      ],
      "scale": [
        1.0,
        0.9999999403953552,
        1.0000020265579224
      ],
      "translation": [
        0.0,
        1.0,
        0.0
      ]
    },
    {
      "name": "Bone.002_02",
      "rotation": [
        0.983079195022583,
        6.551069731131065e-08,
        3.51576574075807e-07,
        0.18318110704421997
      ],
      "scale": [
        1.0,
        1.0,
        0.9999998807907104
      ],
      "translation": [
        0.0,
        1.0,
        0.0
      ]
    }
  ],
  "samplers": [
    {
      "magFilter": 9729,
      "minFilter": 9987,
      "wrapS": 10497,
      "wrapT": 10497
    }
  ],
  "scene": 0,
  "scenes": [
    {
      "name": "Sketchfab_Scene",
      "nodes": [
        0
      ]
    }
  ],
  "skins": [
    {
      "inverseBindMatrices": 4,
      "joints": [
        45,
        48,
        49,
        50
      ],
      "skeleton": 45
    }
  ],
  "textures": [
    {
      "sampler": 0,
      "source": 0
    },
    {
      "sampler": 0,
      "source": 1
    }
  ]
}
