{
  "accessors": [
    {
      "bufferView": 2,
      "componentType": 5126,
      "count": 804,
      "max": [
        0.3818179965019226,
        0.38899099826812744,
        0.7792249917984009
      ],
      "min": [
        -0.396014004945755,
        -0.5055969953536987,
        0.0015650000423192978
      ],
      "type": "VEC3"
    },
    {
      "bufferView": 2,
      "byteOffset": 9648,
      "componentType": 5126,
      "count": 804,
      "max": [
        0.9952479004859924,
        0.9936484694480896,
        0.9872561097145081
      ],
      "min": [
        -0.9952760934829712,
        -0.9995920062065125,
        -0.9938161373138428
      ],
      "type": "VEC3"
    },
    {
      "bufferView": 1,
      "componentType": 5126,
      "count": 804,
      "max": [
        0.8046879768371582,
        -0.007813000120222569
      ],
      "min": [
        0.007813000120222569,
        -0.78125
      ],
      "type": "VEC2"
    },
    {
      "bufferView": 0,
      "componentType": 5125,
      "count": 2052,
      "type": "SCALAR"
    },
    {
      "bufferView": 2,
      "byteOffset": 19296,
      "componentType": 5126,
      "count": 28,
      "max": [
        0.20872199535369873,
        -0.15609000623226166,
        0.7745320200920105
      ],
      "min": [
        -0.22291800379753113,
        -0.2794030010700226,
        0.5970460176467896
      ],
      "type": "VEC3"
    },
    {
      "bufferView": 2,
      "byteOffset": 19632,
      "componentType": 5126,
      "count": 28,
      "max": [
        0.518106997013092,
        -0.6299961805343628,
        0.6750251650810242
      ],
      "min": [
        -0.5244851112365723,
        -0.7653006315231323,
        0.5575151443481445
      ],
      "type": "VEC3"
    },
    {
      "bufferView": 1,
      "byteOffset": 6432,
      "componentType": 5126,
      "count": 28,
      "max": [
        0.7168239951133728,
        -0.1015629991889
      ],
      "min": [
        0.4277609884738922,
        -0.4111729860305786
      ],
      "type": "VEC2"
    },
    {
      "bufferView": 0,
      "byteOffset": 8208,
      "componentType": 5125,
      "count": 48,
      "type": "SCALAR"
    },
    {
      "bufferView": 2,
      "byteOffset": 19968,
      "componentType": 5126,
      "count": 42,
      "max": [
        0.20896600186824799,
        -0.19000500440597534,
        0.7049999833106995
      ],
      "min": [
        -0.22316299378871918,
        -0.39200401306152344,
        0.39036598801612854
      ],
      "type": "VEC3"
    },
    {
      "bufferView": 2,
      "byteOffset": 20472,
      "componentType": 5126,
      "count": 42,
      "max": [
        0.46678900718688965,
        -0.6248289942741394,
        0.706561803817749
      ],
      "min": [
        -0.4673460125923157,
        -0.9843319058418274,
        0.13774394989013672
      ],
      "type": "VEC3"
    },
    {
      "bufferView": 1,
      "byteOffset": 6656,
      "componentType": 5126,
      "count": 42,
      "max": [
        0.14526399970054626,
        -0.07714799791574478
      ],
      "min": [
        0.0019529999699443579,
        -0.9990230202674866
      ],
      "type": "VEC2"
    },
    {
      "bufferView": 0,
      "byteOffset": 8400,
      "componentType": 5125,
      "count": 108,
      "type": "SCALAR"
    }
  ],
  "asset": {
    "extras": {
      "author": "GM (https://sketchfab.com/marcanotwins)",
      "license": "CC-BY-4.0 (http://creativecommons.org/licenses/by/4.0/)",
      "source": "https://sketchfab.com/3d-models/pac-n-roll-pac-man-f3fe9dca8da248d3a21f970aa9c092e0",
      "title": "Pac N Roll: Pac- Man"
    },
    "generator": "Sketchfab-16.3.0",
    "version": "2.0"
  },
  "bufferViews": [
    {
      "buffer": 0,
      "byteLength": 8832,
      "name": "floatBufferViews",
      "target": 34963
    },
    {
      "buffer": 0,
      "byteLength": 6992,
      "byteOffset": 8832,
      "byteStride": 8,
      "name": "floatBufferViews",
      "target": 34962
    },
    {
      "buffer": 0,
      "byteLength": 20976,
      "byteOffset": 15824,
      "byteStride": 12,
      "name": "floatBufferViews",
      "target": 34962
    }
  ],
  "buffers": [
    {
      "byteLength": 36800,
      "uri": "scene.bin"
    }
  ],
  "images": [
    {
      "uri": "textures/s_pac_a0_cmp4_baseColor.png"
    },
    {
      "uri": "textures/s_pma_a0_cmp4_baseColor.png"
    },
    {
      "uri": "textures/s_pme_a0_cmp4_baseColor.png"
    }
  ],
  "materials": [
    {
      "doubleSided": true,
      "name": "s_pac_a0_cmp4",
      "pbrMetallicRoughness": {
        "baseColorTexture": {
          "index": 0
        },
        "metallicFactor": 0.0
      }
    },
    {
      "doubleSided": true,
      "name": "s_pma_a0_cmp4",
      "pbrMetallicRoughness": {
        "baseColorTexture": {
          "index": 1
        },
        "metallicFactor": 0.0
      }
    },
    {
      "doubleSided": true,
      "name": "s_pme_a0_cmp4",
      "pbrMetallicRoughness": {
        "baseColorTexture": {
          "index": 2
        },
        "metallicFactor": 0.0
      }
    }
  ],
  "meshes": [
    {
      "name": "Object_0",
      "primitives": [
        {
          "attributes": {
            "NORMAL": 1,
            "POSITION": 0,
            "TEXCOORD_0": 2
          },
          "indices": 3,
          "material": 0,
          "mode": 4
        }
      ]
    },
    {
      "name": "Object_1",
      "primitives": [
        {
          "attributes": {
            "NORMAL": 5,
            "POSITION": 4,
            "TEXCOORD_0": 6
          },
          "indices": 7,
          "material": 1,
          "mode": 4
        }
      ]
    },
    {
      "name": "Object_2",
      "primitives": [
        {
          "attributes": {
            "NORMAL": 9,
            "POSITION": 8,
            "TEXCOORD_0": 10
          },
          "indices": 11,
          "material": 2,
          "mode": 4
        }
      ]
    }
  ],
  "nodes": [
    {
      "children": [
        1
      ],
      "matrix": [
        1.0,
        0.0,
        0.0,
        0.0,
        0.0,
        2.220446049250313e-16,
        -1.0,
        0.0,
        0.0,
        1.0,
        2.220446049250313e-16,
        0.0,
        0.0,
        0.0,
        0.0,
        1.0
      ],
      "name": "Sketchfab_model"
    },
    {
      "children": [
        2,
        3,
        4
      ],
      "name": "PacmanHigh.obj.cleaner.materialmerger.gles"
    },
    {
      "mesh": 0,
      "name": "Object_2"
    },
    {
      "mesh": 1,
      "name": "Object_3"
    },
    {
      "mesh": 2,
      "name": "Object_4"
    }
  ],
  "samplers": [
    {
      "magFilter": 9729,
      "minFilter": 9987,
      "wrapS": 10497,
      "wrapT": 10497
    }
  ],
  "scene": 0,
  "scenes": [
    {
      "name": "Sketchfab_Scene",
      "nodes": [
        0
      ]
    }
  ],
  "textures": [
    {
      "sampler": 0,
      "source": 0
    },
    {
      "sampler": 0,
      "source": 1
    },
    {
      "sampler": 0,
      "source": 2
    }
  ]
}
